<svg xmlns="http://www.w3.org/2000/svg" width="104.492" height="100.807" viewBox="0 0 104.492 100.807">
  <g id="ac_icon" transform="translate(0.851 0.75)">
    <g id="technology" transform="translate(0 37.668)">
      <path id="Path_33" data-name="Path 33" d="M117.6,355.985a1.712,1.712,0,0,0,3.424,0,1.261,1.261,0,0,1,.27-.831,4.816,4.816,0,0,0,0-5.186,1.416,1.416,0,0,1,0-1.663,4.587,4.587,0,0,0,.758-2.593,1.712,1.712,0,1,0-3.424,0,1.26,1.26,0,0,1-.27.831,4.816,4.816,0,0,0,0,5.186,1.416,1.416,0,0,1,0,1.663A4.587,4.587,0,0,0,117.6,355.985Z" transform="translate(-95.853 -296.059)" fill="#ffc20e" stroke="#ffc20e" stroke-width="1.5"/>
      <path id="Path_34" data-name="Path 34" d="M245.6,355.985a1.712,1.712,0,1,0,3.424,0,1.261,1.261,0,0,1,.27-.831,4.815,4.815,0,0,0,0-5.186,1.416,1.416,0,0,1,0-1.663,4.587,4.587,0,0,0,.758-2.593,1.712,1.712,0,0,0-3.424,0,1.26,1.26,0,0,1-.27.831,4.816,4.816,0,0,0,0,5.186,1.416,1.416,0,0,1,0,1.663A4.587,4.587,0,0,0,245.6,355.985Z" transform="translate(-196.458 -296.059)" fill="#ffc20e" stroke="#ffc20e" stroke-width="1.5"/>
      <path id="Path_35" data-name="Path 35" d="M181.6,355.985a1.712,1.712,0,0,0,3.424,0,1.261,1.261,0,0,1,.27-.831,4.816,4.816,0,0,0,0-5.186,1.416,1.416,0,0,1,0-1.663,4.587,4.587,0,0,0,.758-2.593,1.712,1.712,0,1,0-3.424,0,1.26,1.26,0,0,1-.27.831,4.816,4.816,0,0,0,0,5.186,1.416,1.416,0,0,1,0,1.663,4.587,4.587,0,0,0-.758,2.593Z" transform="translate(-146.156 -296.059)" fill="#ffc20e" stroke="#ffc20e" stroke-width="1.5"/>
      <path id="Path_36" data-name="Path 36" d="M309.6,355.985a1.712,1.712,0,0,0,3.424,0,1.261,1.261,0,0,1,.27-.831,4.815,4.815,0,0,0,0-5.186,1.416,1.416,0,0,1,0-1.663,4.587,4.587,0,0,0,.758-2.593,1.712,1.712,0,1,0-3.424,0,1.26,1.26,0,0,1-.27.831,4.816,4.816,0,0,0,0,5.186,1.416,1.416,0,0,1,0,1.663A4.587,4.587,0,0,0,309.6,355.985Z" transform="translate(-246.761 -296.059)" fill="#ffc20e" stroke="#ffc20e" stroke-width="1.5"/>
      <path id="Path_37" data-name="Path 37" d="M373.6,355.985a1.712,1.712,0,0,0,3.424,0,1.261,1.261,0,0,1,.27-.831,4.816,4.816,0,0,0,0-5.186,1.416,1.416,0,0,1,0-1.663,4.587,4.587,0,0,0,.758-2.593,1.712,1.712,0,1,0-3.424,0,1.259,1.259,0,0,1-.27.831,4.816,4.816,0,0,0,0,5.186,1.416,1.416,0,0,1,0,1.663A4.587,4.587,0,0,0,373.6,355.985Z" transform="translate(-297.063 -296.059)" fill="#ffc20e" stroke="#ffc20e" stroke-width="1.5"/>
      <path id="Path_38" data-name="Path 38" d="M217.683,152H193.712A1.712,1.712,0,0,0,192,153.712v6.849a1.712,1.712,0,0,0,1.712,1.712h23.971a1.712,1.712,0,0,0,1.712-1.712v-6.849A1.712,1.712,0,0,0,217.683,152Z" transform="translate(-154.332 -145.151)" fill="#ffc20e" stroke="#ffc20e" stroke-width="1.5"/>
      <path id="Path_39" data-name="Path 39" d="M16.051,149.522l3.424,13.7a1.712,1.712,0,0,0,1.661,1.3h92.458a1.712,1.712,0,0,0,1.661-1.3l3.424-13.7h0a1.709,1.709,0,0,0,.053-.415V128.561A8.571,8.571,0,0,0,110.17,120H24.561A8.571,8.571,0,0,0,16,128.561v20.546a1.708,1.708,0,0,0,.053.415Zm88.983,11.57H29.7v-3.424h75.336Zm7.224,0h-3.8v-5.137a1.712,1.712,0,0,0-1.712-1.712H27.985a1.712,1.712,0,0,0-1.712,1.712v5.137h-3.8l-2.568-10.273h94.921ZM19.424,128.561a5.143,5.143,0,0,1,5.137-5.137H110.17a5.143,5.143,0,0,1,5.137,5.137V147.4H19.424Z" transform="translate(-16 -120)" fill="#ffc20e" stroke="#ffc20e" stroke-width="1.5"/>
    </g>
    <path id="Subtraction_11" data-name="Subtraction 11" d="M.074,62.93c-.049-.494-.074-1-.074-1.5s.025-1.018.074-1.518V62.93ZM52.558,34.221H48.349l4.356-4.365,3.273-3.279a1.488,1.488,0,0,1,1.527-.359A11.911,11.911,0,0,0,73.213,14.911a12.1,12.1,0,0,0-.07-1.3l-4.689,4.735a1.486,1.486,0,0,1-1.056.441h-4.21a1.493,1.493,0,0,1-1.071-.455l-4.112-4.269a1.484,1.484,0,0,1-.417-1.036V8.809a1.484,1.484,0,0,1,.428-1.046l4.628-4.707a12.177,12.177,0,0,0-1.336-.074,11.764,11.764,0,0,0-9.663,4.971,11.822,11.822,0,0,0-1.621,10.769,1.493,1.493,0,0,1-.358,1.53L35.725,34.221H27.8L11.393,17.744H7.8a1.487,1.487,0,0,1-1.275-.724L.213,6.475A1.493,1.493,0,0,1,.437,4.654L4.646.437A1.485,1.485,0,0,1,6.463.213L16.986,6.539a1.492,1.492,0,0,1,.723,1.279v3.6L35.97,29.758,46.932,18.775a15.038,15.038,0,0,1-.507-3.272,14.649,14.649,0,0,1,1.162-6.377,15.289,15.289,0,0,1,1.641-2.912A14.866,14.866,0,0,1,66.061.778a1.492,1.492,0,0,1,.585,2.459L60.565,9.421v3l3.256,3.38h2.958l6.169-6.231A1.486,1.486,0,0,1,75,9.521a1.494,1.494,0,0,1,.41.628,14.9,14.9,0,0,1-17.96,19.167l-4.9,4.9ZM5.929,3.369,3.364,5.94l5.282,8.836h3.366a1.47,1.47,0,0,1,1.053.423l18.7,18.776,2.1-2.109-18.7-18.779a1.483,1.483,0,0,1-.435-1.053V8.663ZM44.142,34.221H39.933l6.42-6.433a1.49,1.49,0,0,1,2.1,2.109l-4.316,4.325Zm7.472-8.1a1.489,1.489,0,1,1,1.053-.437A1.491,1.491,0,0,1,51.614,26.116Z" transform="translate(13.269)" fill="#ffc20e" stroke="#ffc20e" stroke-width="1.5"/>
  </g>
</svg>
