<svg xmlns="http://www.w3.org/2000/svg" width="21" height="21" viewBox="0 0 21 21">
  <g id="check_icon" transform="translate(-295 -1137)">
    <circle id="Ellipse_11" data-name="Ellipse 11" cx="9" cy="9" r="9" transform="translate(296 1138)" fill="#111217"/>
    <path id="Icon_awesome-check-circle" data-name="Icon awesome-check-circle" d="M21.563,11.063a10.5,10.5,0,1,1-10.5-10.5A10.5,10.5,0,0,1,21.563,11.063ZM9.848,16.622l7.79-7.79a.677.677,0,0,0,0-.958l-.958-.958a.677.677,0,0,0-.958,0L9.369,13.269,6.4,10.3a.677.677,0,0,0-.958,0l-.958.958a.677.677,0,0,0,0,.958l4.4,4.4a.677.677,0,0,0,.958,0Z" transform="translate(294.438 1136.438)" fill="#ffc20e"/>
  </g>
</svg>
