<svg id="duct_icon" xmlns="http://www.w3.org/2000/svg" width="102.251" height="102.739" viewBox="0 0 102.251 102.739">
  <path id="Subtraction_12" data-name="Subtraction 12" d="M102.251,78.967H60V72.931h6.283V54.205H0V24.515H5.544V12.2H11.58V0h6.406V12.2h5.667V24.515H54.082V12.2H60V0h6.283V12.2h5.79V24.515h7.268a18.683,18.683,0,0,1,2.6.484,22.717,22.717,0,0,1,5.717,2.285,16.461,16.461,0,0,1,5.717,5.336,17.513,17.513,0,0,1,2.6,9.635V72.931h6.283v6.036ZM72.068,60.488V72.931h18.6V60.488ZM87.468,37.2h0L72.191,52.727v1.848H90.3V41.27L87.468,37.2Zm-81.8-6.653V48.908l23.9-.493V30.552Zm60.735,0V48.661h1.355L83.649,33.016l-4.682-2.464Zm-30.763,0L35.48,48.661H60V30.552Z" transform="translate(0)" fill="#ffc20e"/>
  <rect id="Rectangle_83" data-name="Rectangle 83" width="6" height="19" transform="translate(66.416 83.739)" fill="#ffc20e"/>
  <rect id="Rectangle_84" data-name="Rectangle 84" width="6" height="19" transform="translate(78.416 83.739)" fill="#ffc20e"/>
  <rect id="Rectangle_85" data-name="Rectangle 85" width="7" height="19" transform="translate(89.416 83.739)" fill="#ffc20e"/>
</svg>
