<svg xmlns="http://www.w3.org/2000/svg" width="141.472" height="45.93" viewBox="0 0 141.472 45.93">
  <g id="foot_logo" transform="translate(1742 -6642.499)">
    <path id="Path_27" data-name="Path 27" d="M6.135-45.95H5l-.9,2.891L3.181-45.95H2.014l-.9,2.891-.9-2.891H-.924L.518-41.821H1.708l.877-2.813.9,2.813H4.725Zm8.8,0H13.8l-.9,2.891-.917-2.891H10.812l-.9,2.891-.9-2.891H7.874l1.442,4.129h1.191l.877-2.813.9,2.813h1.238Zm8.8,0H22.6l-.9,2.891-.917-2.891H19.61l-.9,2.891-.9-2.891H16.672l1.442,4.129H19.3l.877-2.813.9,2.813h1.238Zm3.087,4.129V-42.8h-.932v.979Zm6.738,0q0-3.4-.436-3.768a1.906,1.906,0,0,0-1.257-.36H29.63v.854a11.16,11.16,0,0,1,2.538.133.706.706,0,0,1,.282.635,7.181,7.181,0,0,0-2.6.251,1.085,1.085,0,0,0-.494.964,1.267,1.267,0,0,0,.344.971,1.321,1.321,0,0,0,.938.321Zm-1.1-.823H31.088a.9.9,0,0,1-.407-.071.383.383,0,0,1-.172-.36.366.366,0,0,1,.212-.36,1.157,1.157,0,0,1,.447-.071h1.285Zm7.435.823v-.885a5.34,5.34,0,0,1-2.154-.227,1.122,1.122,0,0,1-.337-.94,1.153,1.153,0,0,1,.329-.971,1.811,1.811,0,0,1,1.018-.2h1.144v-.9a12.333,12.333,0,0,0-2.515.149,1.425,1.425,0,0,0-.815.736,2.5,2.5,0,0,0-.313,1.222,2.155,2.155,0,0,0,.337,1.175,1.643,1.643,0,0,0,.979.744l.243.063a.881.881,0,0,0,.172.016l.447.024Zm5.233-3.306v-.823H44.077l-.008-.157v-.227a.287.287,0,0,1,.149-.235.76.76,0,0,1,.384-.094l.345.008.172.016v-.815a5.3,5.3,0,0,0-1.857.165.609.609,0,0,0-.266.353q-.031.2-.047.431-.008.157-.008.556h-.776v.823h.776v3.306h1.136v-3.306Zm3.627-1.3v-1.026H47.618v1.026Zm0,4.607V-45.95H47.618v4.129Zm6.769-4.129H54.262L53.338-44.7l-.885-1.254H51.2l1.528,2.06-1.512,2.068h1.254l.87-1.191.877,1.191h1.269l-1.5-2.037Zm3.565-.478v-1.026H57.952v1.026Zm0,4.607V-45.95H57.952v4.129Zm6.691,0q0-3.463-.462-3.815a2.019,2.019,0,0,0-1.269-.313H61.995v4.129h1.081v-3.212a3.534,3.534,0,0,1,1.457.141.958.958,0,0,1,.133.6v2.476Zm6.753-.157V-45.95h-1.99a2.842,2.842,0,0,0-.979.141,2.258,2.258,0,0,0-.776.539,1.173,1.173,0,0,0-.321.586,4.441,4.441,0,0,0-.086.954,2.071,2.071,0,0,0,.376,1.165,1.546,1.546,0,0,0,1.144.711.612.612,0,0,1,.086.016l.086.016H71.42a.575.575,0,0,1-.658.642H68.819v.838q2.938,0,3.33-.415A1.747,1.747,0,0,0,72.524-41.978Zm-1.1-.7-.7-.008-.243-.008-.219-.023a.768.768,0,0,1-.564-.4,1.872,1.872,0,0,1-.18-.884,1,1,0,0,1,.313-.821,1.631,1.631,0,0,1,1.018-.256h.509l.063.008Zm4.724.854V-42.8h-.932v.979Zm6.134,0v-.885a5.34,5.34,0,0,1-2.154-.227,1.122,1.122,0,0,1-.337-.94,1.153,1.153,0,0,1,.329-.971,1.811,1.811,0,0,1,1.018-.2h1.144v-.9a12.333,12.333,0,0,0-2.515.149,1.425,1.425,0,0,0-.815.736,2.5,2.5,0,0,0-.313,1.222,2.155,2.155,0,0,0,.337,1.175,1.643,1.643,0,0,0,.979.744l.243.063a.881.881,0,0,0,.172.016l.447.024Zm6.792-2.068a2.11,2.11,0,0,0-.6-1.559,2.155,2.155,0,0,0-1.583-.588,2.375,2.375,0,0,0-.877.149,2.206,2.206,0,0,0-.705.447,2.053,2.053,0,0,0-.611,1.551A2.063,2.063,0,0,0,85.3-42.33a2.172,2.172,0,0,0,1.583.6,2.156,2.156,0,0,0,1.583-.6A2.1,2.1,0,0,0,89.071-43.889Zm-1.136.008a1.373,1.373,0,0,1-.266.877.972.972,0,0,1-.791.376A.91.91,0,0,1,86.1-43a1.428,1.428,0,0,1-.274-.877,1.4,1.4,0,0,1,.259-.877.988.988,0,0,1,.807-.376.893.893,0,0,1,.783.368A1.466,1.466,0,0,1,87.935-43.881Zm9.66,2.06q0-3.431-.462-3.8a2.017,2.017,0,0,0-1.254-.329H91.7v4.129h1.081v-3.212h1.285v3.212h1.12v-3.212l.329-.016h.439a.5.5,0,0,1,.4.172.888.888,0,0,1,.149.58v2.476Z" transform="translate(-1722.674 6728.769)" fill="#fff"/>
    <path id="Path_26" data-name="Path 26" d="M6.276-124.084-1.2-141.561H-5.682l-7.359,17.477h5.07l1.391-3.859H-.455l1.481,3.859Zm-8.368-8.054H-4.942l1.391-3.657Zm21.111,8.054v-4.15H11.907l-.651-.135a1.618,1.618,0,0,1-.853-.494,2.452,2.452,0,0,1-.561-.92,7.955,7.955,0,0,1-.359-2.513,10.531,10.531,0,0,1,.269-2.6l.359-1.054a2.8,2.8,0,0,1,.538-.785,2.609,2.609,0,0,1,.942-.583,4.413,4.413,0,0,1,1.189-.135h6.237v-4.106q-7.269,0-8.211.135l-.942.2-.942.269a5.662,5.662,0,0,0-2.782,2.064,9.758,9.758,0,0,0-1.369,3.118A18.044,18.044,0,0,0,4.436-132a9,9,0,0,0,1.189,4.442,6.3,6.3,0,0,0,4.083,3.208,2.734,2.734,0,0,0,.763.157h.112a1.227,1.227,0,0,0,.269.045h.292l1.5.067Z" transform="translate(-1728.501 6796.815)" fill="#fff"/>
    <path id="Union_14" data-name="Union 14" d="M67.791,29.975a4.337,4.337,0,0,1-.612-.045,1.331,1.331,0,0,1-.34-.068,2.918,2.918,0,0,1-.5-.113l-1.292-.408a3.319,3.319,0,0,1-1.066-.589l-.861-.68a4.057,4.057,0,0,1-1.043-1.247,10.38,10.38,0,0,1-.839-1.859,13.422,13.422,0,0,1-.521-4.036,10.9,10.9,0,0,1,.816-4.33,7.441,7.441,0,0,1,3.492-3.582,4.472,4.472,0,0,1,1.882-.567q1.133-.136,10.225-.136v4.194H69.106a2.637,2.637,0,0,0-2.471,1.179,5.771,5.771,0,0,0-.7,2.993,12.622,12.622,0,0,0,.249,2.879,2.8,2.8,0,0,0,.839,1.474,4.571,4.571,0,0,0,1.723.453q.907.091,1.587.113,1.134.046,1.95.045V23.2H67.723v-4.24h9.409V29.975Zm-12.946,0L48.95,19.569l.091,10.407H44.166V12.314h5.4l5.555,9.817-.091-9.817h4.807V29.975Zm-17.685,0H31.878l-3.016-5.033-3.219,5.033H15.508V12.314h4.717l-2.479-3.6a4.487,4.487,0,0,1-2.264-.243,3.961,3.961,0,0,1-2.542-3.459,4.473,4.473,0,0,1,.426-2.19L15.433,5.66l3.15.312.677-3.092L17.194.037a4.472,4.472,0,0,1,2.214.271,3.961,3.961,0,0,1,2.5,3.468,4.479,4.479,0,0,1-.451,2.212L25.7,12.314h.031l2.993,4.6,2.925-4.6H42.1V29.975Zm-5.577-9L37.16,29.3V12.486ZM20.451,29.161l5.6-8.05-5.6-8.357ZM0,29.975V21.827a17.034,17.034,0,0,1,.612-5.319,5.4,5.4,0,0,1,2.7-3.238,12.07,12.07,0,0,1,3.673-.707q1.542-.1,3.242-.159,1.95-.091,4.376-.091v4.194H8.389a8.093,8.093,0,0,0-1.61.136,2.241,2.241,0,0,0-1.066.589,3.11,3.11,0,0,0-.816,1.9h9.7v4.149H4.829v6.688Z" transform="translate(-1679.187 6643)" fill="#fff" stroke="rgba(0,0,0,0)" stroke-miterlimit="10" stroke-width="1"/>
    <path id="Subtraction_2" data-name="Subtraction 2" d="M11.854,25.78H10.473V22l-2.4,2.405-1.3-1.3,3.7-3.706v-4.08L6.98,17.344,5.622,22.4l-1.778-.478.88-3.28L1.4,20.56.023,18.172l3.263-1.882L0,15.41l.478-1.778L5.536,14.99l3.6-2.083-3.6-2.077L.478,12.188,0,10.41l3.286-.88L.023,7.648,1.4,5.254l3.32,1.922L3.844,3.89l1.778-.478L6.98,8.476l3.493,2.014V6.382l-3.7-3.706,1.3-1.3,2.4,2.4V0h1.381Z" transform="translate(-1706.863 6651.646)" fill="#ffc20e"/>
    <path id="Subtraction_1" data-name="Subtraction 1" d="M1.658,25.834H0V17.717H.047a4.832,4.832,0,0,0,0-9.664H0V0H1.658L3.268,3.833c.145.065.3.138.452.21s.305.145.45.209L8,2.641l2.319,2.319L8.712,8.794a5.516,5.516,0,0,1,.419.9l3.833,1.611v3.221L9.131,16.139c-.064.145-.138.3-.209.451s-.145.306-.209.451l1.611,3.833L8,23.193,4.17,21.582c-.222.124-.463.228-.695.328L3.268,22Z" transform="translate(-1694.162 6651.646)" fill="#fff"/>
    <path id="Union_15" data-name="Union 15" d="M52.243,25.89,54.248,24.5h87.224V25.89ZM0,25.89V24.5H40.223l.925,1.387Zm90.154-24.5L88.767,0h52.705V1.387Zm-36.788,0L52.441,0H76.107l.64,1.387ZM0,1.387V0H41.147L40.064,1.387Z" transform="translate(-1742 6651.591)" fill="#ffc20e"/>
  </g>
</svg>
