<svg xmlns="http://www.w3.org/2000/svg" width="40" height="35" viewBox="0 0 40 35">
  <path id="Icon_awesome-quote-left" data-name="Icon awesome-quote-left" d="M36.25,19.75H30v5a5,5,0,0,0,5,5h.625A1.87,1.87,0,0,1,37.5,31.625v3.75a1.87,1.87,0,0,1-1.875,1.875H35a12.5,12.5,0,0,1-12.5-12.5V6a3.751,3.751,0,0,1,3.75-3.75h10A3.751,3.751,0,0,1,40,6V16A3.751,3.751,0,0,1,36.25,19.75Zm-22.5,0H7.5v5a5,5,0,0,0,5,5h.625A1.871,1.871,0,0,1,15,31.625v3.75a1.87,1.87,0,0,1-1.875,1.875H12.5A12.5,12.5,0,0,1,0,24.75V6A3.751,3.751,0,0,1,3.75,2.25h10A3.751,3.751,0,0,1,17.5,6V16A3.751,3.751,0,0,1,13.75,19.75Z" transform="translate(0 -2.25)" opacity="0.2"/>
</svg>
