<svg xmlns="http://www.w3.org/2000/svg" width="204.12" height="66.048" viewBox="0 0 204.12 66.048">
  <g id="white_logo" transform="translate(0 0.502)">
    <path id="Path_27" data-name="Path 27" d="M9.261-45.284H7.622l-1.3,4.171L5-45.284H3.315l-1.3,4.171-1.3-4.171H-.924l2.08,5.957H2.874L4.14-43.385l1.3,4.058H7.226Zm12.694,0H20.316l-1.3,4.171-1.323-4.171H16.009l-1.3,4.171-1.3-4.171H11.77l2.08,5.957h1.718l1.266-4.058,1.3,4.058H19.92Zm12.694,0H33.01l-1.3,4.171-1.323-4.171H28.7l-1.3,4.171-1.3-4.171H24.464l2.08,5.957h1.718l1.266-4.058,1.3,4.058h1.786ZM39.1-39.327V-40.74H37.758v1.413Zm9.721,0q0-4.906-.629-5.437a2.75,2.75,0,0,0-1.813-.52H43.161v1.232a16.1,16.1,0,0,1,3.662.192,1.018,1.018,0,0,1,.407.916,10.361,10.361,0,0,0-3.753.362,1.565,1.565,0,0,0-.712,1.39,1.829,1.829,0,0,0,.5,1.4,1.905,1.905,0,0,0,1.354.463ZM47.23-40.513H45.263a1.305,1.305,0,0,1-.588-.1.553.553,0,0,1-.249-.52.528.528,0,0,1,.305-.52,1.67,1.67,0,0,1,.644-.1H47.23Zm10.727,1.187V-40.6a7.7,7.7,0,0,1-3.109-.328,1.619,1.619,0,0,1-.486-1.356,1.664,1.664,0,0,1,.475-1.4,2.613,2.613,0,0,1,1.469-.294h1.65v-1.3a17.8,17.8,0,0,0-3.629.215,2.056,2.056,0,0,0-1.176,1.063,3.614,3.614,0,0,0-.452,1.763,3.109,3.109,0,0,0,.486,1.7A2.371,2.371,0,0,0,54.6-39.474l.35.09a1.27,1.27,0,0,0,.249.023l.644.034Zm7.551-4.77v-1.187h-1.5l-.011-.226v-.328a.414.414,0,0,1,.215-.339,1.1,1.1,0,0,1,.554-.136l.5.011.249.023v-1.176a7.647,7.647,0,0,0-2.679.237.878.878,0,0,0-.384.509q-.045.294-.068.622-.011.226-.011.8H61.247V-44.1h1.119v4.77h1.639V-44.1Zm5.234-1.876v-1.481H69.114v1.481Zm0,6.647v-5.957H69.114v5.957Zm9.766-5.957H78.7l-1.334,1.809-1.277-1.809H74.28l2.2,2.973L74.3-39.327h1.809l1.255-1.718,1.266,1.718h1.831l-2.17-2.939Zm5.143-.69v-1.481H84.024v1.481Zm0,6.647v-5.957H84.024v5.957Zm9.653,0q0-5-.667-5.5a2.913,2.913,0,0,0-1.831-.452h-2.95v5.957h1.56v-4.635a5.1,5.1,0,0,1,2.1.2,1.382,1.382,0,0,1,.192.859v3.572Zm9.744-.226v-5.731h-2.871a4.1,4.1,0,0,0-1.413.2,3.258,3.258,0,0,0-1.119.778,1.693,1.693,0,0,0-.463.846,6.408,6.408,0,0,0-.124,1.377A2.988,2.988,0,0,0,99.6-40.4a2.23,2.23,0,0,0,1.65,1.027.884.884,0,0,1,.124.023l.124.023h1.956a.829.829,0,0,1-.95.927H99.7v1.21q4.239,0,4.8-.6A2.521,2.521,0,0,0,105.049-39.553Zm-1.594-1.006-1.006-.011-.35-.011-.317-.034a1.108,1.108,0,0,1-.814-.573,2.7,2.7,0,0,1-.26-1.275,1.451,1.451,0,0,1,.452-1.185,2.353,2.353,0,0,1,1.469-.37h.735l.09.011Zm6.816,1.232V-40.74h-1.345v1.413Zm8.851,0V-40.6a7.7,7.7,0,0,1-3.109-.328,1.619,1.619,0,0,1-.486-1.356,1.664,1.664,0,0,1,.475-1.4,2.613,2.613,0,0,1,1.469-.294h1.65v-1.3a17.8,17.8,0,0,0-3.629.215,2.056,2.056,0,0,0-1.176,1.063,3.614,3.614,0,0,0-.452,1.763,3.109,3.109,0,0,0,.486,1.7,2.371,2.371,0,0,0,1.413,1.074l.35.09a1.27,1.27,0,0,0,.249.023l.644.034Zm9.8-2.984a3.044,3.044,0,0,0-.87-2.249,3.109,3.109,0,0,0-2.283-.848,3.427,3.427,0,0,0-1.266.215,3.183,3.183,0,0,0-1.017.644,2.963,2.963,0,0,0-.882,2.238,2.977,2.977,0,0,0,.882,2.249,3.134,3.134,0,0,0,2.283.859,3.111,3.111,0,0,0,2.283-.87A3.03,3.03,0,0,0,128.923-42.311Zm-1.639.011a1.981,1.981,0,0,1-.384,1.266,1.4,1.4,0,0,1-1.142.543,1.313,1.313,0,0,1-1.119-.531,2.06,2.06,0,0,1-.4-1.266,2.022,2.022,0,0,1,.373-1.266,1.426,1.426,0,0,1,1.164-.543,1.289,1.289,0,0,1,1.13.531A2.115,2.115,0,0,1,127.284-42.3Zm13.938,2.973q0-4.951-.667-5.482a2.91,2.91,0,0,0-1.809-.475h-6.025v5.957h1.56v-4.635h1.854v4.635h1.616v-4.635l.475-.023h.633a.723.723,0,0,1,.576.249,1.282,1.282,0,0,1,.215.836v3.572Z" transform="translate(27.475 102.735)" fill="#111217"/>
    <path id="Path_26" data-name="Path 26" d="M14.83-116.345,4.05-141.561H-2.424l-10.617,25.216h7.316l2.007-5.568H5.119l2.136,5.568ZM2.756-127.966H-1.355l2.007-5.276Zm30.46,11.621v-5.988H22.954l-.939-.194a2.335,2.335,0,0,1-1.23-.712,3.537,3.537,0,0,1-.809-1.327,11.477,11.477,0,0,1-.518-3.625,15.2,15.2,0,0,1,.388-3.755l.518-1.521a4.039,4.039,0,0,1,.777-1.133,3.765,3.765,0,0,1,1.36-.842,6.368,6.368,0,0,1,1.716-.194h9v-5.924q-10.488,0-11.847.194l-1.36.291-1.36.388a8.169,8.169,0,0,0-4.014,2.978,14.079,14.079,0,0,0-1.975,4.5,26.034,26.034,0,0,0-.486,5.438,12.979,12.979,0,0,0,1.716,6.409,9.085,9.085,0,0,0,5.891,4.629,3.945,3.945,0,0,0,1.1.227h.162a1.771,1.771,0,0,0,.388.065h.421l2.169.1Z" transform="translate(13.701 159.241)" fill="#111217"/>
    <path id="Union_14" data-name="Union 14" d="M97.81,43.249a6.258,6.258,0,0,1-.883-.065,1.92,1.92,0,0,1-.491-.1,4.21,4.21,0,0,1-.72-.164l-1.865-.589a4.789,4.789,0,0,1-1.537-.85L91.072,40.5a5.854,5.854,0,0,1-1.5-1.8,14.976,14.976,0,0,1-1.211-2.682A19.365,19.365,0,0,1,87.6,30.2a15.722,15.722,0,0,1,1.178-6.248,10.735,10.735,0,0,1,5.038-5.169,6.452,6.452,0,0,1,2.715-.818q1.635-.2,14.753-.2v6.052H99.708a3.805,3.805,0,0,0-3.566,1.7,8.327,8.327,0,0,0-1.014,4.318,18.212,18.212,0,0,0,.36,4.155A4.035,4.035,0,0,0,96.7,36.118a6.6,6.6,0,0,0,2.486.654q1.308.131,2.29.164,1.636.066,2.813.065V33.468H97.712V27.351h13.576v15.9Zm-18.679,0L70.626,28.234l.131,15.015H63.724V17.766H71.51l8.014,14.164-.131-14.164h6.935V43.249Zm-25.516,0H45.994l-4.351-7.262L37,43.249H22.375V17.766h6.806l-3.576-5.2a6.473,6.473,0,0,1-3.267-.35,5.716,5.716,0,0,1-3.668-4.991,6.453,6.453,0,0,1,.615-3.16l2.98,4.1,4.545.45.977-4.461-2.98-4.1A6.452,6.452,0,0,1,28,.445a5.715,5.715,0,0,1,3.612,5,6.462,6.462,0,0,1-.651,3.192l6.12,9.125h.045l4.318,6.641,4.22-6.641H60.747V43.249ZM45.569,30.262l8.047,12.01V18.015ZM29.507,42.074l8.08-11.615L29.507,18.4ZM0,43.249V31.493a24.577,24.577,0,0,1,.883-7.675,7.793,7.793,0,0,1,3.893-4.672,17.415,17.415,0,0,1,5.3-1.02q2.224-.143,4.678-.229,2.813-.131,6.314-.131v6.052H12.1a11.677,11.677,0,0,0-2.322.2,3.234,3.234,0,0,0-1.537.85,4.487,4.487,0,0,0-1.178,2.748h14V33.6H6.968v9.65Z" transform="translate(90.629 0)" fill="#111217" stroke="rgba(0,0,0,0)" stroke-miterlimit="10" stroke-width="1"/>
    <path id="Subtraction_2" data-name="Subtraction 2" d="M17.1,37.2H15.111V31.749l-3.462,3.47L9.772,33.343,15.111,28V22.11l-5.04,2.914-1.959,7.3-2.566-.689L6.816,26.9,2.026,29.665.033,26.22,4.741,23.5,0,22.234l.689-2.566,7.3,1.96,5.2-3.006-5.2-3-7.3,1.96L0,15.019l4.741-1.27L.033,11.034,2.026,7.58l4.791,2.773L5.546,5.613l2.566-.689,1.959,7.306,5.04,2.906V9.208L9.772,3.861l1.876-1.876,3.462,3.462V0H17.1Z" transform="translate(50.697 12.476)" fill="#fff"/>
    <path id="Subtraction_1" data-name="Subtraction 1" d="M2.392,37.275H0V25.562H.068a6.972,6.972,0,0,0,0-13.943H0V0H2.392L4.716,5.531c.21.093.434.2.652.3s.441.209.649.3l5.531-2.324,3.346,3.346-2.324,5.531a7.959,7.959,0,0,1,.6,1.3l5.531,2.324v4.648l-5.531,2.324c-.093.209-.2.433-.3.65s-.209.442-.3.651l2.324,5.531-3.346,3.346L6.017,31.14c-.321.178-.667.329-1,.474l-.3.131Z" transform="translate(69.021 12.476)" fill="#111217"/>
    <path id="Union_15" data-name="Union 15" d="M75.378,37.355l2.893-2H204.12v2ZM0,37.355v-2H58.034l1.334,2ZM130.077,2l-2-2H204.12V2ZM77,2,75.664,0h34.145l.923,2ZM0,2V0H59.368L57.806,2Z" transform="translate(0 12.395)" fill="#fff"/>
  </g>
</svg>
